<svg xmlns="http://www.w3.org/2000/svg" width="4274" height="1024" viewBox="0 0 4274 1024"><path d="M1217.658 220.187h137.948l148.56 461.596 90.197-461.596h103.461L1578.446 809.12h-137.948l-148.56-464.249-90.197 464.249H1098.28l119.378-588.933zm880.746 403.233h-294.466V639.337c0 31.834 10.611 58.363 29.181 76.933 21.223 18.57 50.404 26.528 84.891 26.528 21.223 0 42.446-2.653 61.016-5.306 18.57-5.306 39.793-10.611 58.363-21.223l-5.306 84.891c-21.223 7.959-45.098 13.264-66.321 18.57-21.223 2.653-45.098 5.306-68.974 5.306-61.016 0-108.767-18.57-143.254-53.057s-53.057-84.891-53.057-145.907c0-34.487 5.306-66.321 18.57-98.155s29.181-61.016 50.404-84.891c23.876-26.528 47.751-45.098 76.933-55.71 26.528-10.611 58.363-18.57 95.503-18.57 50.404 0 90.197 15.917 119.378 47.751s45.098 74.28 45.098 127.337c0 10.611 0 23.876-2.653 37.14 0 10.611 0 26.528-5.306 42.446zm-84.891-68.974v-2.653c0-10.611 2.653-15.917 2.653-21.223 0-29.181-7.959-50.404-21.223-66.321s-34.487-23.876-58.363-23.876c-29.181 0-53.057 10.611-74.28 29.181-21.223 21.223-37.14 47.751-45.098 84.891h196.311zm474.86 5.305c0-34.487-7.959-63.668-23.876-82.238-15.917-21.223-39.793-29.181-68.974-29.181-34.487 0-66.321 18.57-92.85 50.404-26.528 34.487-39.793 76.933-39.793 124.684 0 37.14 7.959 66.321 26.528 87.544s39.793 31.834 68.974 31.834c34.487 0 66.321-18.57 90.197-53.057 26.528-34.487 39.793-79.585 39.793-129.99zm-84.891-191.005c58.363 0 106.114 18.57 140.601 53.057 34.487 37.14 53.057 84.891 53.057 145.907 0 34.487-5.306 68.974-18.57 98.155-13.264 31.834-29.181 58.363-53.057 82.238s-50.404 42.446-79.585 53.057c-29.181 13.264-63.668 18.57-98.155 18.57-61.016 0-108.767-18.57-143.254-53.057s-53.057-82.238-53.057-143.254c0-76.933 23.876-137.948 68.974-185.699 47.751-45.098 108.767-68.974 183.047-68.974zm793.202-129.99l-26.528 95.503c-21.223-13.264-45.098-21.223-68.974-26.528s-47.751-7.959-74.28-7.959c-74.28 0-135.295 21.223-183.047 68.974-47.751 45.098-68.974 106.114-68.974 177.741 0 55.71 15.917 100.808 45.098 135.295s71.627 50.404 119.378 50.404c15.917 0 29.181 0 42.446-2.653s26.528-5.306 37.14-7.959l31.834-159.171H2942.01l18.57-84.891h217.534l-63.668 315.689c-23.876 7.959-50.404 15.917-79.585 21.223-26.528 5.306-55.71 5.306-84.891 5.306-45.098 0-82.238-2.653-111.42-10.611-26.528-7.959-53.057-18.57-76.933-37.14-34.487-23.876-58.363-55.71-76.933-95.503s-26.528-82.238-26.528-129.99c0-50.404 10.611-98.155 29.181-140.601 18.57-45.098 47.751-82.238 82.238-114.073 31.834-26.528 66.321-47.751 108.767-61.016s90.197-21.223 143.254-21.223c29.181 0 58.363 2.653 87.544 7.959 29.181 2.653 58.363 10.611 87.544 21.223zm366.093 137.949l-23.876 98.155c-7.959-2.653-15.917-5.306-26.528-5.306-7.959-2.653-15.917-2.653-26.528-2.653-34.487 0-58.363 10.611-79.585 31.834-18.57 21.223-34.487 58.363-45.098 111.42l-39.793 201.617h-108.767l84.891-432.415h98.155l-15.917 74.28c21.223-29.181 42.446-50.404 63.668-63.668s45.098-21.223 68.974-21.223c7.959 0 13.264 0 21.223 2.653 10.611 0 18.57 2.653 29.181 5.306zm61.016 2.653h106.114l-87.544 429.762h-106.114l87.544-429.762zm122.031-76.933h-108.767l21.223-111.42h108.767l-21.223 111.42zm339.565 259.979c0-31.834-7.959-58.363-23.876-76.933s-37.14-29.181-63.668-29.181c-34.487 0-63.668 18.57-87.544 53.057s-37.14 79.585-37.14 129.99c0 29.181 7.959 53.057 23.876 71.627s34.487 26.528 58.363 26.528c34.487 0 63.668-15.917 90.197-50.404 26.528-37.14 39.793-76.933 39.793-124.684zm84.891-387.316h106.114l-127.337 634.031h-95.503l15.917-71.627c-18.57 26.528-42.446 47.751-66.321 61.016s-53.057 21.223-82.238 21.223c-47.751 0-84.891-15.917-111.42-50.404s-39.793-79.585-39.793-137.948c0-76.933 18.57-140.601 58.363-191.005s90.197-74.28 151.212-74.28c31.834 0 61.016 7.959 82.238 21.223 23.876 13.264 42.446 37.14 53.057 66.321l55.71-278.549z"/><path fill="#FFF" d="M490.777 0c270.591 0 490.777 230.798 490.777 512s-220.187 512-490.777 512C220.186 1024 0 795.855 0 512S220.187 0 490.777 0z"/><path fill="#2E2C2A" d="M259.979 931.15c82.238-2.653 355.482 0 466.902-2.653 13.264-7.959 26.528-18.57 39.793-26.528-74.28-21.223-148.56-45.098-201.617-87.544-15.917-10.611-29.181-23.876-42.446-37.14 37.14-34.487 71.627-71.627 108.767-106.114 61.016 53.057 124.684 84.891 238.756 124.684 7.959-10.611 13.264-21.223 21.223-34.487-95.503-71.627-100.808-156.518 47.751-116.725l7.959-39.793c-50.404-29.181-106.114-53.057-151.212-87.544 45.098-39.793 95.503-76.933 151.212-98.155-2.653-13.264-5.306-29.181-10.611-42.446-132.642 42.446-148.56-74.28-50.404-116.725-5.306-10.611-13.264-21.223-21.223-31.834-42.446 10.611-71.627 18.57-114.073 37.14-45.098 21.223-84.891 53.057-122.031 84.891-34.487-37.14-68.974-71.627-103.461-106.114 42.446-37.14 84.891-71.627 132.642-95.503 29.181-15.917 61.016-21.223 92.85-26.528-13.264-10.611-26.528-18.57-42.446-26.528-135.295 0-289.161 2.653-435.067 0-13.264 7.959-29.181 15.917-42.446 26.528 34.487 7.959 68.974 13.264 98.155 29.181 47.751 26.528 90.197 61.016 132.642 95.503-37.14 34.487-71.627 71.627-103.461 106.114-37.14-31.834-76.933-63.668-122.031-87.544-31.834-15.917-76.933-26.528-116.725-31.834-5.306 5.306-13.264 15.917-18.57 26.528 100.808 50.404 42.446 135.295-50.404 116.725-2.653 13.264-5.306 26.528-10.611 39.793 55.71 18.57 108.767 58.363 156.518 98.155-47.751 34.487-103.461 61.016-156.518 90.197l7.959 39.793c212.228-106.114 167.13 71.627 47.751 116.725 5.306 10.611 13.264 23.876 21.223 34.487 116.725-39.793 180.394-74.28 241.409-124.684 34.487 37.14 71.627 71.627 108.767 106.114-13.264 13.264-29.181 23.876-42.446 37.14-55.71 42.446-129.99 66.321-206.922 90.197 15.917 7.959 29.181 18.57 42.446 26.528zm100.809-525.264C397.928 437.72 432.415 474.86 464.249 512l-2.653 2.653c-39.793 42.446-71.627 74.28-100.808 100.808-29.181-29.181-58.363-58.363-87.544-84.891-5.306-2.653-7.959-7.959-13.264-10.611 37.14-34.487 66.321-76.933 100.808-114.073zm368.746 114.073c-5.306 2.653-7.959 7.959-13.264 10.611-31.834 26.528-61.016 55.71-87.544 84.891-29.181-26.528-61.016-58.363-100.808-100.808L525.265 512c34.487-37.14 66.321-71.627 103.461-106.114 31.834 37.14 63.668 79.585 100.808 114.073z"/><path fill="#CB252A" d="M724.228 928.497c-66.321 39.793-148.56 66.321-230.798 66.321S326.3 973.595 259.979 931.15c66.321-23.876 132.642-50.404 183.047-90.197 15.917-13.264 34.487-26.528 50.404-39.793 15.917 13.264 31.834 29.181 50.404 39.793 50.404 39.793 122.031 66.321 177.741 84.891l2.653 2.653zM331.606 641.99c-61.016 47.751-122.031 79.585-233.451 122.031-21.223-37.14-37.14-74.28-47.751-116.725 55.71-31.834 124.684-63.668 177.741-100.808 7.959 5.306 15.917 13.264 21.223 18.57 29.181 23.876 55.71 50.404 82.238 76.933zm267.938 5.305c-34.487 37.14-68.974 74.28-106.114 108.767-37.14-34.487-71.627-71.627-106.114-108.767 31.834-29.181 63.668-61.016 103.461-103.461l2.653-2.653 2.653 2.653c39.793 42.446 71.627 74.28 103.461 103.461zm334.259-2.653c-10.611 42.446-29.181 82.238-47.751 119.378-111.42-42.446-169.782-74.28-230.798-122.031 26.528-26.528 53.057-53.057 82.238-76.933 7.959-5.306 13.264-13.264 21.223-18.57 53.057 37.14 119.378 66.321 175.088 98.155zm0-265.284c-63.668 23.876-122.031 66.321-175.088 111.42-37.14-34.487-66.321-76.933-100.808-114.073 37.14-31.834 76.933-61.016 122.031-84.891 31.834-15.917 66.321-26.528 103.461-31.834 21.223 39.793 34.487 74.28 50.404 119.378zM708.311 92.85c-29.181 5.306-53.057 13.264-82.238 26.528-47.751 26.528-90.197 61.016-132.642 95.503-42.446-37.14-84.891-71.627-132.642-98.155-29.181-15.917-53.057-18.57-84.891-26.528 68.974-37.14 137.948-58.363 220.187-58.363 74.28 2.653 151.212 23.876 212.228 61.016zM328.953 379.358c-34.487 37.14-66.321 79.585-103.461 114.073-53.057-45.098-114.073-90.197-177.741-114.073 10.611-42.446 29.181-82.238 50.404-116.725 42.446 7.959 76.933 15.917 108.767 29.181 45.098 23.876 84.891 55.71 122.031 87.544zm267.938-2.653c-37.14 31.834-68.974 68.974-103.461 106.114-34.487-34.487-66.321-71.627-103.461-106.114 34.487-37.14 68.974-71.627 103.461-106.114 37.14 34.487 68.974 68.974 103.461 106.114z"/></svg>